<svg xmlns="http://www.w3.org/2000/svg" width="60" height="60" viewBox="0 0 60 60">
  <!-- Floor -->
  <line x1="0" y1="57" x2="60" y2="57" stroke="#444" stroke-width="0.8"/>
  <circle cx="2" cy="55" r="2" fill="#3b82f6" stroke="#1e3a5f" stroke-width="0.8" opacity="0.9"/>
  <circle cx="3.87" cy="41.01" r="2" fill="#3b82f6" stroke="#1e3a5f" stroke-width="0.8" opacity="0.9"/>
  <circle cx="5.73" cy="29.42" r="2" fill="#3b82f6" stroke="#1e3a5f" stroke-width="0.8" opacity="0.9"/>
  <circle cx="7.6" cy="20.23" r="2" fill="#3b82f6" stroke="#1e3a5f" stroke-width="0.8" opacity="0.9"/>
  <circle cx="9.47" cy="13.46" r="2" fill="#3b82f6" stroke="#1e3a5f" stroke-width="0.8" opacity="0.9"/>
  <circle cx="11.33" cy="9.09" r="2" fill="#3b82f6" stroke="#1e3a5f" stroke-width="0.8" opacity="0.9"/>
  <circle cx="13.2" cy="7.12" r="2" fill="#3b82f6" stroke="#1e3a5f" stroke-width="0.8" opacity="0.9"/>
  <circle cx="15.07" cy="7.56" r="2" fill="#3b82f6" stroke="#1e3a5f" stroke-width="0.8" opacity="0.9"/>
  <circle cx="16.93" cy="10.41" r="2" fill="#3b82f6" stroke="#1e3a5f" stroke-width="0.8" opacity="0.9"/>
  <circle cx="18.8" cy="15.66" r="2" fill="#3b82f6" stroke="#1e3a5f" stroke-width="0.8" opacity="0.9"/>
  <circle cx="20.67" cy="23.32" r="2" fill="#3b82f6" stroke="#1e3a5f" stroke-width="0.8" opacity="0.9"/>
  <circle cx="22.53" cy="33.38" r="2" fill="#3b82f6" stroke="#1e3a5f" stroke-width="0.8" opacity="0.9"/>
  <circle cx="24.4" cy="45.85" r="2" fill="#3b82f6" stroke="#1e3a5f" stroke-width="0.8" opacity="0.9"/>
  <circle cx="26.27" cy="50.85" r="2" fill="#3b82f6" stroke="#1e3a5f" stroke-width="0.8" opacity="0.9"/>
  <circle cx="28.13" cy="41.16" r="2" fill="#3b82f6" stroke="#1e3a5f" stroke-width="0.8" opacity="0.9"/>
  <circle cx="30" cy="33.88" r="2" fill="#3b82f6" stroke="#1e3a5f" stroke-width="0.8" opacity="0.9"/>
  <circle cx="31.87" cy="29" r="2" fill="#3b82f6" stroke="#1e3a5f" stroke-width="0.8" opacity="0.9"/>
  <circle cx="33.73" cy="26.53" r="2" fill="#3b82f6" stroke="#1e3a5f" stroke-width="0.8" opacity="0.9"/>
  <circle cx="35.6" cy="26.47" r="2" fill="#3b82f6" stroke="#1e3a5f" stroke-width="0.8" opacity="0.9"/>
  <circle cx="37.47" cy="28.81" r="2" fill="#3b82f6" stroke="#1e3a5f" stroke-width="0.8" opacity="0.9"/>
  <circle cx="39.33" cy="33.56" r="2" fill="#3b82f6" stroke="#1e3a5f" stroke-width="0.8" opacity="0.9"/>
  <circle cx="41.2" cy="40.71" r="2" fill="#3b82f6" stroke="#1e3a5f" stroke-width="0.8" opacity="0.9"/>
  <circle cx="43.07" cy="50.27" r="2" fill="#3b82f6" stroke="#1e3a5f" stroke-width="0.8" opacity="0.9"/>
  <circle cx="44.93" cy="50.11" r="2" fill="#3b82f6" stroke="#1e3a5f" stroke-width="0.8" opacity="0.9"/>
  <circle cx="46.8" cy="43.59" r="2" fill="#3b82f6" stroke="#1e3a5f" stroke-width="0.8" opacity="0.9"/>
  <circle cx="48.67" cy="39.48" r="2" fill="#3b82f6" stroke="#1e3a5f" stroke-width="0.8" opacity="0.9"/>
  <circle cx="50.53" cy="37.77" r="2" fill="#3b82f6" stroke="#1e3a5f" stroke-width="0.8" opacity="0.9"/>
  <circle cx="52.4" cy="38.47" r="2" fill="#3b82f6" stroke="#1e3a5f" stroke-width="0.8" opacity="0.9"/>
  <circle cx="54.27" cy="41.57" r="2" fill="#3b82f6" stroke="#1e3a5f" stroke-width="0.8" opacity="0.9"/>
  <circle cx="56.13" cy="47.08" r="2" fill="#3b82f6" stroke="#1e3a5f" stroke-width="0.8" opacity="0.9"/>
</svg>