<svg xmlns="http://www.w3.org/2000/svg" width="60" height="60" viewBox="0 0 60 60">
  <!-- Floor -->
  <line x1="0" y1="57" x2="60" y2="57" stroke="#444" stroke-width="0.8"/>
  <circle cx="2" cy="57" r="1" fill="#1a4fcc" opacity="0.85"/>
  <circle cx="2.93" cy="48.34" r="1" fill="#1a4fcc" opacity="0.85"/>
  <circle cx="3.87" cy="40.55" r="1" fill="#1a4fcc" opacity="0.85"/>
  <circle cx="4.8" cy="33.61" r="1" fill="#1a4fcc" opacity="0.85"/>
  <circle cx="5.73" cy="27.54" r="1" fill="#1a4fcc" opacity="0.85"/>
  <circle cx="6.67" cy="22.32" r="1" fill="#1a4fcc" opacity="0.85"/>
  <circle cx="7.6" cy="17.96" r="1" fill="#1a4fcc" opacity="0.85"/>
  <circle cx="8.53" cy="14.47" r="1" fill="#1a4fcc" opacity="0.85"/>
  <circle cx="9.47" cy="11.83" r="1" fill="#1a4fcc" opacity="0.85"/>
  <circle cx="10.4" cy="10.05" r="1" fill="#1a4fcc" opacity="0.85"/>
  <circle cx="11.33" cy="9.14" r="1" fill="#1a4fcc" opacity="0.85"/>
  <circle cx="12.27" cy="9.08" r="1" fill="#1a4fcc" opacity="0.85"/>
  <circle cx="13.2" cy="9.88" r="1" fill="#1a4fcc" opacity="0.85"/>
  <circle cx="14.13" cy="11.55" r="1" fill="#1a4fcc" opacity="0.85"/>
  <circle cx="15.07" cy="14.07" r="1" fill="#1a4fcc" opacity="0.85"/>
  <circle cx="16" cy="17.45" r="1" fill="#1a4fcc" opacity="0.85"/>
  <circle cx="16.93" cy="21.7" r="1" fill="#1a4fcc" opacity="0.85"/>
  <circle cx="17.87" cy="26.8" r="1" fill="#1a4fcc" opacity="0.85"/>
  <circle cx="18.8" cy="32.76" r="1" fill="#1a4fcc" opacity="0.85"/>
  <circle cx="19.73" cy="39.59" r="1" fill="#1a4fcc" opacity="0.85"/>
  <circle cx="20.67" cy="47.27" r="1" fill="#1a4fcc" opacity="0.85"/>
  <circle cx="21.6" cy="55.81" r="1" fill="#1a4fcc" opacity="0.85"/>
  <circle cx="22.53" cy="51.21" r="1" fill="#1a4fcc" opacity="0.85"/>
  <circle cx="23.47" cy="45.35" r="1" fill="#1a4fcc" opacity="0.85"/>
  <circle cx="24.4" cy="40.35" r="1" fill="#1a4fcc" opacity="0.85"/>
  <circle cx="25.33" cy="36.21" r="1" fill="#1a4fcc" opacity="0.85"/>
  <circle cx="26.27" cy="32.93" r="1" fill="#1a4fcc" opacity="0.85"/>
  <circle cx="27.2" cy="30.51" r="1" fill="#1a4fcc" opacity="0.85"/>
  <circle cx="28.13" cy="28.94" r="1" fill="#1a4fcc" opacity="0.85"/>
  <circle cx="29.07" cy="28.24" r="1" fill="#1a4fcc" opacity="0.85"/>
  <circle cx="30" cy="28.4" r="1" fill="#1a4fcc" opacity="0.85"/>
  <circle cx="30.93" cy="29.42" r="1" fill="#1a4fcc" opacity="0.85"/>
  <circle cx="31.87" cy="31.3" r="1" fill="#1a4fcc" opacity="0.85"/>
  <circle cx="32.8" cy="34.04" r="1" fill="#1a4fcc" opacity="0.85"/>
  <circle cx="33.73" cy="37.63" r="1" fill="#1a4fcc" opacity="0.85"/>
  <circle cx="34.67" cy="42.09" r="1" fill="#1a4fcc" opacity="0.85"/>
  <circle cx="35.6" cy="47.41" r="1" fill="#1a4fcc" opacity="0.85"/>
  <circle cx="36.53" cy="53.59" r="1" fill="#1a4fcc" opacity="0.85"/>
  <circle cx="37.47" cy="54.38" r="1" fill="#1a4fcc" opacity="0.85"/>
  <circle cx="38.4" cy="49.79" r="1" fill="#1a4fcc" opacity="0.85"/>
  <circle cx="39.33" cy="46.06" r="1" fill="#1a4fcc" opacity="0.85"/>
  <circle cx="40.27" cy="43.19" r="1" fill="#1a4fcc" opacity="0.85"/>
  <circle cx="41.2" cy="41.17" r="1" fill="#1a4fcc" opacity="0.85"/>
  <circle cx="42.13" cy="40.02" r="1" fill="#1a4fcc" opacity="0.85"/>
  <circle cx="43.07" cy="39.73" r="1" fill="#1a4fcc" opacity="0.85"/>
  <circle cx="44" cy="40.3" r="1" fill="#1a4fcc" opacity="0.85"/>
  <circle cx="44.93" cy="41.73" r="1" fill="#1a4fcc" opacity="0.85"/>
  <circle cx="45.87" cy="44.01" r="1" fill="#1a4fcc" opacity="0.85"/>
  <circle cx="46.8" cy="47.16" r="1" fill="#1a4fcc" opacity="0.85"/>
  <circle cx="47.73" cy="51.17" r="1" fill="#1a4fcc" opacity="0.85"/>
  <circle cx="48.67" cy="56.04" r="1" fill="#1a4fcc" opacity="0.85"/>
  <circle cx="49.6" cy="53.82" r="1" fill="#1a4fcc" opacity="0.85"/>
  <circle cx="50.53" cy="50.74" r="1" fill="#1a4fcc" opacity="0.85"/>
  <circle cx="51.47" cy="48.51" r="1" fill="#1a4fcc" opacity="0.85"/>
  <circle cx="52.4" cy="47.14" r="1" fill="#1a4fcc" opacity="0.85"/>
  <circle cx="53.33" cy="46.64" r="1" fill="#1a4fcc" opacity="0.85"/>
  <circle cx="54.27" cy="46.99" r="1" fill="#1a4fcc" opacity="0.85"/>
  <circle cx="55.2" cy="48.2" r="1" fill="#1a4fcc" opacity="0.85"/>
  <circle cx="56.13" cy="50.27" r="1" fill="#1a4fcc" opacity="0.85"/>
  <circle cx="57.07" cy="53.21" r="1" fill="#1a4fcc" opacity="0.85"/>
</svg>