<svg xmlns="http://www.w3.org/2000/svg" width="60" height="60" viewBox="0 0 60 60">
  <!-- Floor -->
  <line x1="0" y1="57" x2="60" y2="57" stroke="#444" stroke-width="0.8"/>
  <circle cx="2" cy="54" r="3" fill="#3b82f6" stroke="#1e3a5f" stroke-width="0.8" opacity="0.9"/>
  <circle cx="3.87" cy="37.55" r="3" fill="#3b82f6" stroke="#1e3a5f" stroke-width="0.8" opacity="0.9"/>
  <circle cx="5.73" cy="24.54" r="3" fill="#3b82f6" stroke="#1e3a5f" stroke-width="0.8" opacity="0.9"/>
  <circle cx="7.6" cy="14.96" r="3" fill="#3b82f6" stroke="#1e3a5f" stroke-width="0.8" opacity="0.9"/>
  <circle cx="9.47" cy="8.83" r="3" fill="#3b82f6" stroke="#1e3a5f" stroke-width="0.8" opacity="0.9"/>
  <circle cx="11.33" cy="6.14" r="3" fill="#3b82f6" stroke="#1e3a5f" stroke-width="0.8" opacity="0.9"/>
  <circle cx="13.2" cy="6.88" r="3" fill="#3b82f6" stroke="#1e3a5f" stroke-width="0.8" opacity="0.9"/>
  <circle cx="15.07" cy="11.07" r="3" fill="#3b82f6" stroke="#1e3a5f" stroke-width="0.8" opacity="0.9"/>
  <circle cx="16.93" cy="18.7" r="3" fill="#3b82f6" stroke="#1e3a5f" stroke-width="0.8" opacity="0.9"/>
  <circle cx="18.8" cy="29.76" r="3" fill="#3b82f6" stroke="#1e3a5f" stroke-width="0.8" opacity="0.9"/>
  <circle cx="20.67" cy="44.27" r="3" fill="#3b82f6" stroke="#1e3a5f" stroke-width="0.8" opacity="0.9"/>
  <circle cx="22.53" cy="48.21" r="3" fill="#3b82f6" stroke="#1e3a5f" stroke-width="0.8" opacity="0.9"/>
  <circle cx="24.4" cy="37.35" r="3" fill="#3b82f6" stroke="#1e3a5f" stroke-width="0.8" opacity="0.9"/>
  <circle cx="26.27" cy="29.93" r="3" fill="#3b82f6" stroke="#1e3a5f" stroke-width="0.8" opacity="0.9"/>
  <circle cx="28.13" cy="25.94" r="3" fill="#3b82f6" stroke="#1e3a5f" stroke-width="0.8" opacity="0.9"/>
  <circle cx="30" cy="25.4" r="3" fill="#3b82f6" stroke="#1e3a5f" stroke-width="0.8" opacity="0.9"/>
  <circle cx="31.87" cy="28.3" r="3" fill="#3b82f6" stroke="#1e3a5f" stroke-width="0.8" opacity="0.9"/>
  <circle cx="33.73" cy="34.63" r="3" fill="#3b82f6" stroke="#1e3a5f" stroke-width="0.8" opacity="0.9"/>
  <circle cx="35.6" cy="44.41" r="3" fill="#3b82f6" stroke="#1e3a5f" stroke-width="0.8" opacity="0.9"/>
  <circle cx="37.47" cy="51.38" r="3" fill="#3b82f6" stroke="#1e3a5f" stroke-width="0.8" opacity="0.9"/>
  <circle cx="39.33" cy="43.06" r="3" fill="#3b82f6" stroke="#1e3a5f" stroke-width="0.8" opacity="0.9"/>
  <circle cx="41.2" cy="38.17" r="3" fill="#3b82f6" stroke="#1e3a5f" stroke-width="0.8" opacity="0.9"/>
  <circle cx="43.07" cy="36.73" r="3" fill="#3b82f6" stroke="#1e3a5f" stroke-width="0.8" opacity="0.9"/>
  <circle cx="44.93" cy="38.73" r="3" fill="#3b82f6" stroke="#1e3a5f" stroke-width="0.8" opacity="0.9"/>
  <circle cx="46.8" cy="44.16" r="3" fill="#3b82f6" stroke="#1e3a5f" stroke-width="0.8" opacity="0.9"/>
  <circle cx="48.67" cy="53.04" r="3" fill="#3b82f6" stroke="#1e3a5f" stroke-width="0.8" opacity="0.9"/>
  <circle cx="50.53" cy="47.74" r="3" fill="#3b82f6" stroke="#1e3a5f" stroke-width="0.8" opacity="0.9"/>
  <circle cx="52.4" cy="44.14" r="3" fill="#3b82f6" stroke="#1e3a5f" stroke-width="0.8" opacity="0.9"/>
  <circle cx="54.27" cy="43.99" r="3" fill="#3b82f6" stroke="#1e3a5f" stroke-width="0.8" opacity="0.9"/>
  <circle cx="56.13" cy="47.27" r="3" fill="#3b82f6" stroke="#1e3a5f" stroke-width="0.8" opacity="0.9"/>
</svg>